<?xml version="1.0" standalone="no"?>
<!DOCTYPE svg PUBLIC "-//W3C//DTD SVG 20010904//EN"
 "http://www.w3.org/TR/2001/REC-SVG-20010904/DTD/svg10.dtd">
<svg version="1.0" xmlns="http://www.w3.org/2000/svg"
 width="800.000000pt" height="600.000000pt" viewBox="0 0 800.000000 600.000000"
 preserveAspectRatio="xMidYMid meet">

<g transform="translate(0.000000,600.000000) scale(0.100000,-0.100000)"
fill="#000000" stroke="none">
<path d="M0 3000 l0 -3000 4000 0 4000 0 0 3000 0 3000 -343 0 c-234 0 -346
-3 -354 -11 -8 -8 -13 -8 -17 0 -5 8 -362 11 -1237 11 l-1230 0 3 -215 3 -215
-165 0 c-115 0 -161 3 -153 11 6 6 63 9 154 7 l144 -3 -3 208 -3 207 -829 0
-829 0 -3 -207 -3 -208 279 3 c182 2 283 -1 290 -8 7 -7 -83 -10 -287 -10
l-297 0 0 215 0 215 -69 0 c-46 0 -71 -4 -74 -12 -4 -10 -7 -10 -18 0 -10 9
-321 12 -1486 12 l-1473 0 0 -3000z m1722 2975 c0 -5 -5 -11 -11 -13 -6 -2
-11 4 -11 13 0 9 5 15 11 13 6 -2 11 -8 11 -13z m-1587 -35 c0 -7 -6 -15 -12
-17 -8 -3 -13 4 -13 17 0 13 5 20 13 18 6 -3 12 -11 12 -18z m3898 7 c-4 -6 0
-8 10 -4 25 9 36 -14 44 -94 4 -41 1 -49 -26 -76 -34 -35 -70 -45 -115 -32
-57 17 -70 34 -70 92 0 28 8 68 17 88 16 36 16 36 81 36 41 0 63 -4 59 -10z
m2235 -5 c2 -7 -3 -12 -12 -12 -9 0 -16 7 -16 16 0 17 22 14 28 -4z m-5589
-38 c-9 -11 -15 -12 -25 -3 -11 9 -12 15 -3 25 9 11 15 12 25 3 11 -9 12 -15
3 -25z m439 25 c-2 -6 -8 -10 -13 -10 -5 0 -11 4 -13 10 -2 6 4 11 13 11 9 0
15 -5 13 -11z m1510 -6 c-4 -22 -22 -20 -26 1 -2 10 3 16 13 16 10 0 15 -7 13
-17z m4335 2 c1 -5 -6 -11 -15 -13 -11 -2 -18 3 -18 13 0 17 30 18 33 0z
m-1637 -24 c-8 -13 -36 -15 -36 -3 0 4 5 13 12 20 14 14 34 0 24 -17z m2616
14 c0 -5 -5 -11 -11 -13 -6 -2 -11 4 -11 13 0 9 5 15 11 13 6 -2 11 -8 11 -13z
m-6566 -6 c10 -17 -13 -36 -27 -22 -12 12 -4 33 11 33 5 0 12 -5 16 -11z
m6129 -9 c0 -8 -8 -16 -17 -18 -13 -2 -18 3 -18 18 0 15 5 20 18 18 9 -2 17
-10 17 -18z m-5588 -34 c-4 -9 -13 -13 -22 -10 -18 7 -20 31 -2 37 17 6 31 -9
24 -27z m441 23 c-2 -6 -8 -10 -13 -10 -5 0 -11 4 -13 10 -2 6 4 11 13 11 9 0
15 -5 13 -11z m3562 -18 c0 -14 -18 -23 -30 -16 -6 4 -8 11 -5 16 8 12 35 12
35 0z m-5090 -16 c0 -8 -6 -15 -14 -15 -17 0 -28 14 -19 24 12 12 33 6 33 -9z
m4748 4 c-2 -6 -8 -10 -13 -10 -5 0 -11 4 -13 10 -2 6 4 11 13 11 9 0 15 -5
13 -11z m1322 -4 c0 -8 -4 -15 -9 -15 -13 0 -22 16 -14 24 11 11 23 6 23 -9z
m-440 -9 c0 -20 -19 -31 -32 -18 -6 6 -7 15 -4 21 10 16 36 13 36 -3z m1194
-17 c-8 -14 -34 -11 -34 4 0 8 3 17 7 20 9 9 34 -13 27 -24z m-5589 -10 c10
-15 -1 -23 -20 -15 -9 3 -13 10 -10 16 8 13 22 13 30 -1z m4541 -30 c10 -17
-13 -36 -27 -22 -12 12 -4 33 11 33 5 0 12 -5 16 -11z m-6325 -25 c17 -21 0
-49 -31 -49 -31 0 -48 28 -31 49 8 9 21 16 31 16 10 0 23 -7 31 -16z m2574
-39 c0 -27 -3 -30 -30 -30 -21 0 -31 5 -33 18 -6 33 6 49 35 45 24 -3 28 -8
28 -33z m3255 5 c13 -25 -10 -53 -41 -48 -30 4 -39 46 -14 64 20 15 42 8 55
-16z m-4580 -5 c0 -32 -45 -49 -56 -20 -10 24 14 47 37 34 10 -5 19 -11 19
-14z m-392 -33 c18 -23 15 -49 -8 -72 -34 -34 -80 -20 -95 27 -9 32 36 77 68
68 12 -4 28 -14 35 -23z m1120 -40 c4 -26 -22 -40 -43 -22 -11 9 -12 17 -4 32
13 25 43 19 47 -10z m3487 -11 c7 -12 -12 -24 -25 -16 -11 7 -4 25 10 25 5 0
11 -4 15 -9z m-5699 -22 c8 -14 -18 -31 -30 -19 -9 9 0 30 14 30 5 0 12 -5 16
-11z m422 -10 c-2 -6 -8 -10 -13 -10 -5 0 -11 4 -13 10 -2 6 4 11 13 11 9 0
15 -5 13 -11z m2072 -14 c0 -8 -6 -15 -14 -15 -17 0 -28 14 -19 24 12 12 33 6
33 -9z m417 -11 c-9 -9 -28 6 -21 18 4 6 10 6 17 -1 6 -6 8 -13 4 -17z m3913
11 c0 -8 -6 -15 -14 -15 -17 0 -28 14 -19 24 12 12 33 6 33 -9z m422 0 c0 -5
-5 -11 -11 -13 -6 -2 -11 4 -11 13 0 9 5 15 11 13 6 -2 11 -8 11 -13z m-6008
-14 c3 -5 -1 -14 -8 -20 -16 -13 -32 2 -21 19 8 12 22 13 29 1z m2986 -1 c0
-6 -28 -10 -64 -10 -36 0 -68 5 -71 10 -4 6 20 10 64 10 41 0 71 -4 71 -10z
m1230 -10 c0 -24 -26 -38 -42 -22 -16 16 -2 42 22 42 13 0 20 -7 20 -20z
m-3792 -1 c-2 -6 -8 -10 -13 -10 -5 0 -11 4 -13 10 -2 6 4 11 13 11 9 0 15 -5
13 -11z m3542 -24 c0 -8 -6 -15 -14 -15 -17 0 -28 14 -19 24 12 12 33 6 33 -9z
m1000 -11 c0 -17 -22 -14 -28 4 -2 7 3 12 12 12 9 0 16 -7 16 -16z m-5526 -33
c3 -5 -1 -14 -8 -20 -16 -13 -32 2 -21 19 8 12 22 13 29 1z m6826 -20 c0 -14
-18 -23 -30 -16 -6 4 -8 11 -5 16 8 12 35 12 35 0z m-1662 -18 c5 -17 -26 -29
-40 -15 -6 6 -7 15 -3 22 9 14 37 9 43 -7z m-4218 -14 c0 -5 -7 -9 -15 -9 -15
0 -20 12 -9 23 8 8 24 -1 24 -14z m290 7 c0 -8 -4 -17 -9 -21 -12 -7 -24 12
-16 25 9 15 25 12 25 -4z m-1694 -32 c-5 -13 -10 -14 -18 -6 -6 6 -8 18 -4 28
5 13 10 14 18 6 6 -6 8 -18 4 -28z m4292 25 c-2 -6 -8 -10 -13 -10 -5 0 -11 4
-13 10 -2 6 4 11 13 11 9 0 15 -5 13 -11z m3342 -4 c16 -19 6 -45 -19 -45 -23
0 -35 28 -20 46 15 18 24 18 39 -1z m-5010 -10 c0 -8 -4 -15 -9 -15 -13 0 -22
16 -14 24 11 11 23 6 23 -9z m-130 -16 c0 -5 -7 -9 -15 -9 -15 0 -20 12 -9 23
8 8 24 -1 24 -14z m3740 -5 c0 -8 -7 -14 -15 -14 -15 0 -21 21 -9 33 10 9 24
-2 24 -19z m590 11 c0 -8 -4 -15 -9 -15 -13 0 -22 16 -14 24 11 11 23 6 23 -9z
m-4885 -5 c3 -6 -1 -13 -10 -16 -19 -8 -30 0 -20 15 8 14 22 14 30 1z m2607
-15 c0 -5 -5 -11 -11 -13 -6 -2 -11 4 -11 13 0 9 5 15 11 13 6 -2 11 -8 11
-13z m-3302 -5 c0 -5 -7 -10 -15 -10 -8 0 -15 5 -15 10 0 6 7 10 15 10 8 0 15
-4 15 -10z m1030 0 c0 -5 -4 -10 -10 -10 -5 0 -10 5 -10 10 0 6 5 10 10 10 6
0 10 -4 10 -10z m610 -11 c0 -5 -7 -9 -15 -9 -15 0 -20 12 -9 23 8 8 24 -1 24
-14z m-2622 -1 c-6 -18 -28 -21 -28 -4 0 9 7 16 16 16 9 0 14 -5 12 -12z m534
-23 c0 -5 -5 -11 -11 -13 -6 -2 -11 4 -11 13 0 9 5 15 11 13 6 -2 11 -8 11
-13z m258 -46 c0 -5 -7 -9 -15 -9 -15 0 -20 12 -9 23 8 8 24 -1 24 -14z m5312
6 c0 -5 -5 -11 -11 -13 -6 -2 -11 4 -11 13 0 9 5 15 11 13 6 -2 11 -8 11 -13z
m968 -19 c-13 -13 -35 7 -25 24 5 8 11 8 21 -1 10 -8 12 -15 4 -23z m-2022 3
c-2 -6 -8 -10 -13 -10 -5 0 -11 4 -13 10 -2 6 4 11 13 11 9 0 15 -5 13 -11z
m1312 -24 c0 -8 -4 -15 -9 -15 -13 0 -22 16 -14 24 11 11 23 6 23 -9z m-4386
-4 c3 -5 -1 -14 -8 -20 -16 -13 -32 2 -21 19 8 12 22 13 29 1z m3522 -22 c7
-12 -15 -31 -28 -23 -4 3 -8 12 -8 20 0 17 26 19 36 3z m-5081 -29 c0 -22 -29
-18 -33 3 -3 14 1 18 15 15 10 -2 18 -10 18 -18z m1245 -1 c0 -5 -7 -9 -15 -9
-15 0 -20 12 -9 23 8 8 24 -1 24 -14z m-228 -4 c0 -5 -5 -11 -11 -13 -6 -2
-11 4 -11 13 0 9 5 15 11 13 6 -2 11 -8 11 -13z m5806 -8 c2 -12 -3 -17 -17
-17 -12 0 -21 6 -21 13 0 31 32 34 38 4z m-4330 -4 c-2 -10 -10 -18 -18 -18
-8 0 -16 8 -18 18 -2 12 3 17 18 17 15 0 20 -5 18 -17z m1542 -28 c0 -8 -4
-15 -9 -15 -13 0 -22 16 -14 24 11 11 23 6 23 -9z m1325 -25 c0 -18 -6 -26
-23 -28 -24 -4 -38 18 -28 44 3 9 15 14 28 12 17 -2 23 -10 23 -28z m-5607 2
c2 -7 -3 -12 -12 -12 -9 0 -16 7 -16 16 0 17 22 14 28 -4z m2620 7 c-2 -6 -8
-10 -13 -10 -5 0 -11 4 -13 10 -2 6 4 11 13 11 9 0 15 -5 13 -11z m-1465 -41
c7 -21 -4 -38 -23 -38 -23 0 -34 16 -26 35 7 18 43 20 49 3z m2885 -13 c5 -22
-18 -37 -35 -23 -17 13 -17 35 0 41 19 8 32 2 35 -18z m-4288 -10 c15 -18 5
-35 -20 -35 -10 0 -22 5 -25 10 -7 11 12 40 25 40 4 0 13 -7 20 -15z m2626 4
c3 -6 -1 -18 -10 -27 -15 -15 -17 -15 -32 0 -19 19 -11 38 16 38 10 0 22 -5
26 -11z m-1588 -10 c-2 -6 -8 -10 -13 -10 -5 0 -11 4 -13 10 -2 6 4 11 13 11
9 0 15 -5 13 -11z m112 -4 c0 -8 -7 -15 -15 -15 -8 0 -15 7 -15 15 0 8 7 15
15 15 8 0 15 -7 15 -15z m2886 4 c10 -17 -13 -36 -27 -22 -12 12 -4 33 11 33
5 0 12 -5 16 -11z m-4291 -27 c0 -18 -20 -15 -23 4 -3 10 1 15 10 12 7 -3 13
-10 13 -16z m2628 3 c1 -5 -6 -11 -15 -13 -11 -2 -18 3 -18 13 0 17 30 18 33
0z m4237 -16 c0 -5 -7 -9 -15 -9 -15 0 -20 12 -9 23 8 8 24 -1 24 -14z m308
10 c-2 -6 -8 -10 -13 -10 -5 0 -11 4 -13 10 -2 6 4 11 13 11 9 0 15 -5 13 -11z
m-4814 -5 c21 -8 21 -43 0 -51 -8 -3 -23 1 -31 10 -13 13 -14 19 -3 31 14 18
13 18 34 10z m-1308 -49 c-3 -9 -14 -15 -23 -13 -22 4 -30 38 -11 49 18 11 43
-15 34 -36z m6384 10 c0 -8 -7 -15 -15 -15 -8 0 -15 7 -15 15 0 8 7 15 15 15
8 0 15 -7 15 -15z m-5392 -12 c5 -17 -26 -29 -40 -15 -6 6 -7 15 -3 22 9 14
37 9 43 -7z m2879 6 c14 -14 6 -39 -12 -39 -18 0 -28 17 -21 35 6 18 18 19 33
4z m-4126 -14 c-1 -15 -24 -12 -29 3 -3 9 2 13 12 10 10 -1 17 -7 17 -13z
m2469 -11 c0 -19 -28 -30 -42 -16 -8 8 -8 15 1 26 14 17 41 10 41 -10z m3344
20 c21 -8 21 -40 0 -48 -21 -8 -34 1 -34 23 0 28 9 34 34 25z m-5966 -27 c4
-20 -25 -34 -40 -19 -15 15 -1 44 19 40 10 -2 19 -11 21 -21z m5728 -8 c10
-17 -13 -36 -27 -22 -12 12 -4 33 11 33 5 0 12 -5 16 -11z m-4140 -39 c25 -10
26 -13 20 -52 -6 -34 -3 -45 15 -64 25 -27 17 -46 -18 -42 -17 2 -29 -4 -37
-17 -6 -10 -20 -27 -31 -36 -17 -15 -18 -21 -8 -37 8 -13 8 -23 1 -30 -12 -12
-1 -52 15 -52 7 0 20 -9 30 -20 18 -21 42 -26 52 -10 4 6 13 5 25 -2 10 -7 17
-15 15 -18 -8 -13 28 -141 46 -164 11 -14 38 -30 59 -36 46 -12 70 -33 71 -63
5 -151 4 -177 -10 -172 -15 6 -51 -22 -51 -39 0 -6 -9 -17 -20 -24 -21 -13
-27 -47 -10 -57 6 -4 5 -13 -2 -24 -14 -22 -5 -49 19 -58 10 -4 26 -18 37 -31
12 -15 24 -21 35 -16 9 4 32 7 51 8 26 1 38 7 45 24 18 41 45 21 45 -34 0 -34
-23 -114 -32 -114 -4 0 -8 7 -8 15 0 8 -9 19 -21 25 -16 9 -24 8 -38 -4 -12
-11 -20 -13 -28 -5 -16 16 -51 2 -59 -24 -4 -12 -15 -28 -25 -35 -20 -14 -25
-47 -9 -57 6 -4 5 -13 -2 -25 -10 -15 -9 -23 6 -39 10 -11 22 -18 26 -16 4 3
10 -4 13 -15 6 -24 31 -35 55 -24 9 4 30 8 46 8 18 1 33 9 40 21 6 11 11 21
11 21 0 1 10 4 22 8 18 6 23 1 33 -30 15 -46 8 -137 -15 -184 -9 -20 -29 -43
-45 -52 l-28 -16 23 -84 c34 -125 40 -210 21 -291 -16 -68 -55 -157 -84 -190
-8 -9 -12 -20 -9 -24 4 -3 2 -12 -4 -19 -18 -22 -2 -47 24 -41 21 6 21 5 3 -8
-14 -10 -24 -11 -38 -4 -20 11 -20 12 -39 -61 -15 -59 -32 -93 -83 -160 -39
-53 -41 -58 -41 -126 1 -50 6 -79 18 -97 22 -34 22 -33 -15 -47 -18 -7 -28
-14 -21 -17 7 -2 21 0 32 6 28 15 66 14 81 -4 17 -21 5 -33 -47 -48 -44 -13
-49 -12 -90 11 -24 13 -50 33 -59 45 -16 22 -16 22 -10 1 6 -19 3 -21 -21 -17
-16 3 -41 11 -58 18 -48 20 -78 28 -72 18 3 -5 23 -17 44 -27 32 -14 38 -22
38 -48 l0 -31 -100 6 c-111 7 -170 21 -199 45 -16 14 -18 14 -14 2 9 -30 106
-52 247 -58 107 -4 135 -2 142 9 7 11 16 6 41 -23 54 -60 110 -80 83 -28 -23
45 -19 57 21 63 20 3 44 13 54 22 19 18 1 25 333 -134 189 -91 332 -203 436
-341 132 -175 179 -330 172 -567 l-1 -52 -57 -11 c-82 -16 -216 -57 -281 -86
-30 -13 -56 -23 -58 -22 -1 2 4 35 12 73 7 39 13 114 14 167 0 95 -1 98 -25
104 -13 3 -29 12 -36 20 -9 11 -6 14 20 14 24 0 31 4 31 20 0 16 -7 20 -30 20
-37 0 -38 12 -4 38 l27 19 -18 79 c-27 122 -73 241 -109 278 -49 52 -193 96
-364 112 -70 7 -72 7 -83 41 -7 24 -22 39 -51 54 -22 11 -42 19 -44 16 -2 -2
3 -20 11 -40 8 -20 15 -40 15 -44 0 -5 -89 -9 -197 -9 -268 -2 -463 -26 -603
-75 -74 -26 -94 -50 -124 -149 -77 -256 -97 -554 -49 -747 5 -21 -3 -18 -88
26 -96 51 -205 90 -307 112 -31 7 -61 16 -66 20 -16 14 -7 201 14 284 53 207
200 404 406 543 33 23 159 91 279 151 120 61 227 120 238 132 21 22 22 22 122
-5 32 -9 77 -15 100 -15 35 1 33 3 -20 10 -32 5 -75 14 -95 21 -19 7 -38 11
-42 10 -13 -3 -9 5 18 45 22 33 25 46 22 98 -4 52 -9 65 -38 95 -49 51 -87
115 -110 185 -18 53 -24 62 -41 58 -43 -12 -67 46 -29 67 19 10 20 10 8 -9
-10 -17 -10 -23 3 -36 13 -13 18 -13 33 -2 24 17 11 43 -40 82 -61 46 -94 109
-94 178 0 41 4 57 12 55 16 -6 24 -23 43 -101 42 -167 170 -247 301 -188 47
21 75 57 97 121 10 30 21 46 34 48 16 2 22 -7 32 -53 12 -55 46 -106 82 -126
64 -34 169 -27 225 16 39 30 88 125 105 203 7 31 18 62 25 68 7 6 12 23 10 37
-3 32 -44 79 -60 69 -6 -3 -18 -5 -28 -4 -9 2 -19 -2 -23 -8 -8 -13 -55 -13
-55 0 0 14 -71 9 -77 -7 -7 -18 -59 -17 -66 1 -4 10 -16 13 -34 11 -15 -2 -31
-4 -35 -4 -5 -1 -8 -7 -8 -15 0 -8 -7 -17 -16 -20 -9 -4 -14 -13 -10 -22 9
-24 -34 -74 -63 -74 -19 0 -32 11 -51 41 -14 23 -24 46 -22 52 2 5 -7 20 -19
33 -24 25 -63 29 -89 8 -16 -12 -60 -2 -60 14 0 4 -47 7 -105 7 -58 -1 -105
-1 -105 1 0 2 14 26 30 54 36 60 37 72 9 116 -20 33 -20 34 -1 34 11 0 25 6
31 14 9 11 18 12 41 3 24 -9 32 -8 49 8 12 10 21 26 21 37 0 11 7 18 20 18 11
0 27 11 36 25 15 23 15 27 0 50 -12 18 -14 30 -7 43 14 26 3 60 -23 69 -11 4
-24 6 -28 5 -5 -1 -8 7 -8 17 0 43 -63 68 -90 36 -10 -13 -15 -13 -32 -1 -11
8 -27 12 -34 9 -9 -3 -4 17 16 62 34 77 36 101 14 191 -32 125 10 241 154 424
2 3 8 -3 13 -13 11 -19 44 -23 54 -7 4 7 12 7 25 0 14 -7 23 -6 34 6 9 9 14
20 11 25 -4 5 0 9 8 9 25 0 42 29 30 49 -6 10 -9 30 -6 45 4 21 1 28 -15 33
-32 8 -34 31 -4 45 15 7 28 23 30 35 3 19 6 20 32 10 32 -12 60 3 60 32 0 45
-65 58 -76 16 -6 -24 -8 -25 -29 -11 -12 8 -29 14 -37 12 -25 -3 -50 -35 -47
-59 4 -24 -7 -47 -22 -47 -14 0 -11 60 11 172 44 229 133 312 276 258z m-798
-18 c3 -16 -2 -22 -16 -22 -24 0 -35 23 -19 39 16 16 31 8 35 -17z m5571 -26
c9 -10 8 -16 -4 -26 -19 -16 -41 1 -32 24 8 20 21 20 36 2z m-2379 -47 c0 -5
-7 -9 -15 -9 -15 0 -20 12 -9 23 8 8 24 -1 24 -14z m-1670 -10 c0 -5 -7 -9
-15 -9 -15 0 -20 12 -9 23 8 8 24 -1 24 -14z m-2620 -4 c0 -8 -4 -15 -9 -15
-13 0 -22 16 -14 24 11 11 23 6 23 -9z m7270 -36 c0 -5 -7 -9 -15 -9 -15 0
-20 12 -9 23 8 8 24 -1 24 -14z m-6472 -27 c2 -7 -3 -12 -12 -12 -9 0 -16 7
-16 16 0 17 22 14 28 -4z m6222 -28 c11 -12 11 -18 -1 -30 -13 -12 -18 -12
-34 0 -16 12 -17 16 -6 30 17 20 25 20 41 0z m-7450 -9 c0 -8 -4 -15 -9 -15
-13 0 -22 16 -14 24 11 11 23 6 23 -9z m2412 -7 c11 -11 17 -25 15 -33 -3 -7
-1 -17 4 -22 12 -12 -27 -48 -62 -56 -18 -5 -30 -1 -44 16 -56 63 28 154 87
95z m4386 4 c2 -7 -3 -12 -12 -12 -9 0 -16 7 -16 16 0 17 22 14 28 -4z m397
-32 c-5 -8 -11 -8 -17 -2 -6 6 -7 16 -3 22 5 8 11 8 17 2 6 -6 7 -16 3 -22z
m-6660 1 c7 -12 -12 -24 -25 -16 -11 7 -4 25 10 25 5 0 11 -4 15 -9z m335 -21
c0 -5 -4 -10 -10 -10 -5 0 -10 5 -10 10 0 6 5 10 10 10 6 0 10 -4 10 -10z
m6965 -55 c0 -11 -7 -21 -16 -23 -18 -3 -33 23 -23 39 10 17 39 5 39 -16z
m-3732 -130 c21 -16 51 -50 68 -75 l30 -45 -33 -11 c-28 -11 -18 -12 64 -7
l97 6 11 -27 c7 -19 6 -46 -5 -96 -14 -68 -64 -182 -85 -195 -6 -3 -8 -10 -6
-14 9 -13 -21 -134 -46 -191 -14 -30 -45 -79 -70 -109 -39 -47 -45 -60 -47
-107 -2 -43 -7 -59 -30 -83 l-28 -30 -10 32 c-6 23 -21 39 -53 56 -33 19 -42
21 -37 9 3 -9 11 -35 18 -58 10 -34 21 -46 55 -62 42 -21 89 -88 61 -88 -22 0
-75 38 -81 58 -7 20 -7 20 -61 1 -72 -25 -144 -24 -206 2 -27 12 -49 24 -49
27 0 3 8 14 17 24 11 13 19 42 21 84 l4 65 -54 57 c-81 85 -123 170 -142 283
-4 21 -13 43 -22 50 -34 28 -76 136 -89 232 -6 39 -5 47 9 47 10 0 13 5 9 17
-6 15 4 16 98 10 81 -4 94 -3 61 4 -38 9 -42 13 -36 32 16 54 56 116 97 154
56 52 75 62 149 77 l60 12 112 -55 c61 -31 128 -69 149 -86z m-1873 105 c0
-24 -25 -33 -41 -13 -11 13 -10 17 5 29 22 16 36 10 36 -16z m-92 -24 c5 -26
-26 -50 -45 -35 -16 14 -17 31 -1 47 17 17 42 11 46 -12z m-1303 -16 c3 -6 -1
-13 -10 -16 -19 -8 -30 0 -20 15 8 14 22 14 30 1z m6081 -11 c10 -17 -13 -36
-27 -22 -12 12 -4 33 11 33 5 0 12 -5 16 -11z m-1446 -34 c40 -20 50 -30 50
-50 0 -23 -4 -25 -47 -27 l-48 -2 47 -3 c51 -4 68 -25 43 -53 -18 -20 -96 -60
-118 -60 -30 0 -51 48 -51 120 -1 105 29 123 124 75z m304 3 c21 -29 21 -129
1 -168 -20 -39 -59 -40 -113 -1 -46 34 -71 65 -29 39 14 -10 32 -18 39 -18 7
0 -2 10 -19 21 -44 28 -41 35 8 31 29 -3 40 -1 35 7 -4 6 -22 11 -41 11 -46 0
-52 24 -12 54 31 22 79 44 104 45 6 1 19 -9 27 -21z m-5254 -9 c0 -5 -7 -9
-15 -9 -15 0 -20 12 -9 23 8 8 24 -1 24 -14z m-228 -4 c0 -5 -5 -11 -11 -13
-6 -2 -11 4 -11 13 0 9 5 15 11 13 6 -2 11 -8 11 -13z m7238 -30 c0 -8 -4 -15
-9 -15 -13 0 -22 16 -14 24 11 11 23 6 23 -9z m-5440 -15 c40 -40 21 -102 -36
-113 -57 -11 -93 64 -52 108 25 26 65 28 88 5z m4985 -25 c0 -22 -31 -33 -47
-17 -17 17 -1 44 24 40 15 -2 23 -10 23 -23z m-6889 -26 c3 -6 -1 -18 -10 -27
-15 -15 -17 -15 -32 0 -19 19 -11 38 16 38 10 0 22 -5 26 -11z m7598 -25 c21
-20 20 -30 -4 -54 -11 -11 -24 -20 -29 -20 -16 0 -41 30 -41 49 0 38 45 54 74
25z m-6980 -43 c37 -41 -14 -97 -60 -66 -28 18 -31 46 -8 69 21 21 47 20 68
-3z m-238 -60 c-9 -14 -33 -14 -41 -1 -4 6 -1 18 6 26 11 13 14 13 27 0 8 -8
11 -19 8 -25z m6960 8 c10 -17 -13 -36 -27 -22 -12 12 -4 33 11 33 5 0 12 -5
16 -11z m-546 -65 c0 -14 -21 -19 -33 -7 -9 9 13 34 24 27 5 -3 9 -12 9 -20z
m369 -40 c-9 -11 -15 -12 -25 -3 -11 9 -12 15 -3 25 9 11 15 12 25 3 11 -9 12
-15 3 -25z m-7094 -54 c-5 -8 -11 -8 -17 -2 -6 6 -7 16 -3 22 5 8 11 8 17 2 6
-6 7 -16 3 -22z m7535 -40 c0 -5 -7 -10 -15 -10 -8 0 -15 5 -15 10 0 6 7 10
15 10 8 0 15 -4 15 -10z m-5137 -33 c30 -30 31 -76 1 -106 -13 -13 -30 -21
-38 -18 -7 3 -18 1 -24 -5 -8 -8 -19 -4 -38 15 -29 29 -40 82 -20 95 7 4 15
14 19 24 9 24 74 21 100 -5z m-2198 -17 c0 -8 -8 -16 -17 -18 -13 -2 -18 3
-18 18 0 15 5 20 18 18 9 -2 17 -10 17 -18z m-364 0 c27 -15 24 -56 -5 -75
-45 -30 -91 16 -61 61 17 26 35 30 66 14z m7077 -8 c2 -7 -3 -12 -12 -12 -9 0
-16 7 -16 16 0 17 22 14 28 -4z m498 -3 c10 -17 -13 -36 -27 -22 -12 12 -4 33
11 33 5 0 12 -5 16 -11z m-7066 -55 c0 -16 -16 -19 -25 -4 -8 13 4 32 16 25 5
-4 9 -13 9 -21z m7240 -34 c0 -13 -7 -20 -20 -20 -13 0 -20 7 -20 20 0 13 7
20 20 20 13 0 20 -7 20 -20z m-420 -25 c0 -8 -7 -15 -15 -15 -8 0 -15 7 -15
15 0 8 7 15 15 15 8 0 15 -7 15 -15z m-2366 -207 c-23 -61 -20 -174 10 -378
29 -194 30 -210 16 -210 -5 0 -10 8 -10 17 0 9 -5 45 -11 80 -9 51 -20 75 -56
121 l-45 57 6 95 c5 87 30 214 57 298 l11 33 19 -35 c17 -33 17 -38 3 -78z
m2260 53 c33 -36 -18 -83 -52 -49 -17 17 -15 45 6 57 24 14 26 14 46 -8z
m-4654 -28 c27 -28 35 -79 15 -91 -7 -4 -14 -14 -17 -22 -6 -20 -77 -24 -85
-4 -3 7 -11 14 -19 14 -9 0 -13 12 -12 38 2 48 25 85 50 79 10 -3 21 -1 24 4
8 14 17 11 44 -18z m-2418 2 c0 -5 -5 -11 -11 -13 -6 -2 -11 4 -11 13 0 9 5
15 11 13 6 -2 11 -8 11 -13z m4904 -121 l38 -72 -37 -118 c-21 -66 -37 -130
-37 -143 0 -58 -14 -2 -26 101 -14 119 -18 278 -8 316 6 21 7 22 19 5 6 -10
29 -50 51 -89z m-3221 -46 c34 -38 46 -114 19 -125 -9 -3 -19 -16 -24 -28 -7
-18 -16 -22 -56 -23 -66 -1 -101 32 -102 94 0 34 4 47 19 55 11 5 17 14 14 18
-8 14 23 33 44 26 10 -3 22 -1 26 5 11 18 30 11 60 -22z m3314 -120 c26 -48
29 -59 24 -113 -3 -33 -1 -77 5 -97 11 -39 3 -49 -20 -24 -21 22 -73 -9 -94
-55 -9 -22 -24 -39 -32 -39 -30 0 7 215 55 322 14 32 27 58 29 58 1 0 16 -24
33 -52z m-1598 -42 c48 -79 178 -114 319 -87 59 12 63 11 106 -14 49 -29 50
-29 29 22 -8 19 -15 37 -15 38 0 2 14 8 30 14 17 5 30 16 30 24 0 15 262 -84
412 -156 222 -107 401 -281 492 -479 43 -93 69 -188 53 -193 -7 -2 -37 -9 -67
-16 -30 -6 -92 -25 -137 -40 -96 -34 -90 -34 -96 -11 -4 13 -5 12 -6 -5 -1
-17 -16 -30 -61 -53 -47 -24 -60 -27 -60 -15 0 8 -3 15 -8 15 -4 0 -144 -138
-312 -306 -168 -169 -296 -303 -285 -299 101 36 134 52 157 73 l28 26 -22 -55
c-11 -30 -25 -63 -29 -74 -12 -28 -47 -212 -50 -260 -2 -22 -9 -48 -17 -57
-13 -15 -13 -18 -1 -19 8 0 1 -5 -16 -10 -46 -14 -298 -23 -407 -14 l-98 7 0
41 c-1 45 -33 241 -45 270 -7 16 -3 17 31 12 l39 -6 494 494 494 495 -7 36
c-4 20 -10 36 -14 36 -4 0 -241 -234 -527 -520 -408 -408 -521 -516 -526 -502
-6 13 112 136 518 543 l526 527 -7 36 c-4 20 -10 36 -14 36 -4 0 -242 -235
-530 -522 -414 -415 -524 -520 -532 -508 -8 12 91 116 463 488 324 325 485
479 512 491 48 22 78 53 73 77 -8 45 -134 95 -291 117 l-90 12 -20 48 c-15 36
-30 53 -58 68 -21 10 -40 19 -43 19 -2 0 3 -23 12 -51 14 -44 22 -54 62 -74
40 -20 70 -56 70 -85 0 -17 -87 40 -98 65 l-12 26 -243 -4 c-305 -6 -478 -32
-590 -89 -48 -24 -68 -62 -44 -85 15 -15 14 -19 -18 -55 -19 -21 -35 -44 -35
-52 0 -8 -3 -23 -6 -33 -4 -10 20 8 52 40 33 31 65 57 71 57 31 0 17 -25 -57
-101 -44 -45 -82 -92 -85 -105 -3 -13 -7 -35 -10 -49 -3 -14 -4 -25 -2 -25 2
0 59 56 128 125 106 107 127 124 147 118 22 -5 10 -20 -131 -162 -152 -153
-155 -157 -159 -203 -2 -27 -1 -48 2 -48 3 0 93 88 201 196 152 152 201 195
218 192 18 -2 -18 -42 -202 -226 l-223 -223 -61 34 c-72 41 -235 100 -321 117
-70 14 -71 16 -46 101 23 75 83 192 139 268 116 157 228 240 544 402 135 69
248 127 251 127 3 1 17 -18 31 -42z m1951 -81 c26 -2 49 -13 81 -41 25 -22 71
-53 102 -69 41 -20 61 -38 70 -59 l13 -31 -103 -7 c-177 -11 -245 -42 -214
-99 15 -30 11 -34 -36 -33 -55 2 -60 6 -45 34 30 56 -35 86 -212 98 l-103 7
32 33 c38 38 63 40 126 8 26 -13 47 -20 47 -16 0 5 -9 36 -19 70 l-19 62 61
29 c56 27 68 30 122 23 33 -3 77 -7 97 -9z m-3742 -250 c17 -20 9 -48 -20 -62
-29 -14 -50 -2 -50 31 0 42 45 62 70 31z m133 3 c20 -21 14 -51 -13 -65 -20
-10 -27 -9 -41 3 -30 27 -15 74 23 74 11 0 25 -6 31 -12z m143 -27 c10 -19 10
-27 -1 -38 -27 -26 -75 -9 -75 27 0 44 56 52 76 11z m421 -18 c0 -39 -52 -58
-77 -28 -17 21 -9 48 20 62 20 10 27 9 41 -3 8 -8 16 -22 16 -31z m133 -3 c0
-35 -46 -54 -68 -27 -21 25 -18 51 8 63 20 11 27 10 42 -3 10 -9 18 -24 18
-33z m2417 15 c4 -27 -15 -44 -27 -25 -8 14 9 64 19 55 3 -3 7 -17 8 -30z
m836 8 c6 -31 -2 -46 -20 -35 -12 8 -6 62 7 62 4 0 10 -12 13 -27z m-3536 -13
c10 -20 9 -27 -3 -41 -16 -17 -25 -18 -56 -4 -21 8 -23 27 -5 55 16 27 48 22
64 -10z m2946 -9 c37 -14 67 -51 67 -83 l0 -28 -37 20 c-27 14 -57 20 -106 20
-68 0 -95 8 -130 38 -17 15 -17 16 5 29 27 14 165 17 201 4z m521 -4 c16 -12
15 -14 -9 -37 -23 -22 -39 -26 -116 -30 -70 -5 -95 -10 -119 -28 -16 -13 -30
-18 -30 -13 0 5 5 13 11 17 8 4 8 8 1 13 -18 11 10 54 48 73 43 22 186 25 214
5z m-3907 -45 c18 0 35 4 38 9 9 14 41 11 55 -6 7 -9 20 -15 29 -14 38 3 51
-3 67 -33 l17 -32 -32 27 c-21 17 -46 28 -69 29 -74 3 -126 -3 -134 -15 -4 -7
-8 -9 -8 -5 0 4 -9 0 -20 -10 -20 -16 -20 -18 -3 -30 10 -8 30 -18 45 -24 16
-6 25 -15 21 -21 -3 -5 -2 -7 4 -4 5 3 36 7 69 8 32 1 69 7 82 12 32 15 38 2
19 -39 -21 -43 -66 -64 -137 -64 -43 0 -55 5 -87 34 -34 31 -37 39 -41 98 -3
51 -1 68 13 82 11 10 21 13 29 8 6 -5 26 -10 43 -10z m3184 -9 c20 -23 20 -25
2 -10 -21 19 -22 19 -26 -15 -4 -27 -4 -25 -4 10 1 23 1 42 2 42 1 0 12 -12
26 -27z m748 -31 c-1 -32 1 -64 5 -70 4 -7 -2 -16 -16 -22 -13 -6 -39 -22 -58
-36 -30 -22 -43 -25 -93 -22 -37 3 -67 11 -84 24 -40 30 -38 40 10 36 69 -6
124 14 178 65 27 25 49 54 49 64 0 11 3 19 6 19 3 0 4 -26 3 -58z m-3431 34
c-2 -6 -16 -11 -33 -13 -29 -2 -29 -2 -10 12 21 16 48 16 43 1z m1734 -7 c31
-16 38 -23 27 -30 -26 -16 -48 -9 -64 21 -18 36 -16 36 37 9z m-1613 -11 c5
-13 7 -26 5 -30 -8 -12 -35 4 -30 17 2 7 -1 18 -7 24 -8 8 -6 11 6 11 10 0 21
-10 26 -22z m-49 2 c8 -5 12 -12 9 -15 -8 -8 -39 5 -39 16 0 11 11 11 30 -1z
m3320 -5 c-7 -8 -17 -15 -23 -15 -6 0 -2 7 9 15 25 19 30 19 14 0z m-3500 -3
c0 -4 -10 -13 -22 -21 -23 -14 -23 -14 -4 8 20 22 26 25 26 13z m2880 -78 c23
-12 57 -18 101 -19 60 0 65 -2 55 -18 -32 -51 -150 -64 -207 -22 -19 13 -45
29 -59 35 -23 11 -24 12 -7 24 10 8 17 26 17 47 l0 33 33 -31 c17 -17 48 -39
67 -49z m-3207 35 c7 -24 33 -20 31 5 -1 9 2 16 7 16 5 0 9 -11 9 -25 0 -20
-5 -25 -26 -25 -15 0 -33 8 -40 17 -7 10 -16 15 -20 11 -4 -4 -1 -14 6 -23 16
-20 5 -19 -31 2 l-29 17 23 13 c34 19 64 16 70 -8z m102 -19 c-3 -4 -14 -10
-26 -13 -15 -4 -19 -2 -15 10 3 8 6 22 6 30 0 14 3 14 20 -2 11 -10 17 -21 15
-25z m252 -16 c-1 -1 -13 2 -26 7 -23 9 -23 10 -5 30 l18 21 8 -28 c4 -16 6
-29 5 -30z m45 19 c7 2 12 11 10 21 -4 20 41 22 76 3 22 -13 22 -13 -14 -30
-20 -10 -34 -21 -31 -24 7 -6 68 16 77 28 3 3 15 9 28 13 19 6 22 4 22 -19 0
-51 -26 -91 -72 -114 -55 -26 -90 -26 -146 -1 -68 31 -98 127 -31 102 40 -15
110 -9 123 10 5 9 7 21 2 25 -4 4 -12 0 -17 -10 -11 -19 -54 -23 -64 -7 -4 6
-4 19 0 28 6 15 8 14 16 -6 5 -13 15 -22 21 -19z m2848 19 c0 -10 5 -23 11
-29 9 -9 7 -11 -9 -6 -32 8 -49 32 -31 44 21 13 29 11 29 -9z m47 1 c-8 23 8
22 49 -4 45 -28 43 -39 -8 -39 -34 1 -39 3 -25 11 9 5 17 15 17 21 0 9 -3 9
-12 0 -18 -18 -36 -14 -49 11 l-12 22 23 -20 c20 -17 23 -18 17 -2z m369 2
c-8 -21 11 -19 23 3 12 19 14 12 5 -12 -7 -19 -35 -21 -52 -4 -7 7 -12 9 -12
6 0 -4 7 -14 16 -22 14 -15 12 -16 -26 -16 -47 0 -46 11 4 41 37 23 50 24 42
4z m84 -6 c0 -9 -40 -39 -54 -39 -5 0 -1 9 9 20 10 11 15 20 11 20 -4 0 -5 4
-1 10 6 10 35 2 35 -11z m-230 -2 c0 -7 12 -37 26 -65 57 -114 204 -144 298
-61 l34 29 -5 -42 c-14 -131 -57 -237 -127 -314 -52 -59 -64 -106 -42 -176 14
-48 14 -48 -9 -48 -49 0 -34 -85 16 -92 16 -3 32 -1 35 3 3 5 13 3 24 -3 10
-7 17 -16 14 -20 -3 -4 3 -5 12 -1 12 4 15 3 10 -6 -5 -7 5 -17 28 -26 33 -14
39 -14 61 1 24 16 30 14 198 -69 174 -86 314 -174 310 -195 -2 -6 3 -9 10 -6
17 6 128 -111 180 -188 50 -76 94 -176 118 -268 21 -80 36 -277 22 -297 -4 -6
-21 -13 -38 -16 -162 -27 -295 -71 -386 -127 -27 -16 -51 -30 -53 -30 -2 0 5
25 15 56 51 155 49 367 -7 589 -33 130 -76 220 -117 246 -47 29 -149 58 -264
76 l-102 16 -17 47 c-14 39 -25 51 -60 68 l-44 22 21 -53 c11 -28 21 -53 22
-53 1 -1 21 -11 43 -22 29 -15 45 -31 53 -53 6 -18 11 -33 11 -35 0 -12 -91
52 -96 68 -6 20 -10 20 -258 15 -312 -6 -474 -32 -579 -90 -34 -19 -40 -29
-62 -102 -62 -204 -92 -435 -75 -587 13 -119 33 -187 76 -267 l35 -63 -38 29
c-120 93 -349 193 -500 218 -38 6 -43 10 -49 41 -3 18 -4 87 -1 151 5 142 38
248 114 375 79 134 310 353 334 317 8 -11 9 -10 7 6 -3 16 35 39 233 140 129
66 247 128 261 137 20 13 33 15 55 8 30 -10 169 -30 209 -30 21 0 24 4 24 40
0 38 -1 40 -32 41 -18 0 -62 8 -98 17 l-64 18 3 49 c2 48 0 52 -44 95 -84 83
-137 188 -154 311 l-7 56 54 -29 c77 -40 137 -35 210 19 35 26 72 89 72 123 0
17 6 20 40 20 26 0 40 -4 40 -13z m-1645 -467 c-231 -231 -423 -420 -426 -420
-35 0 30 73 372 418 214 215 399 398 411 407 13 8 32 15 43 15 14 0 -110 -130
-400 -420z m-215 390 c0 -3 -110 -115 -244 -249 -223 -223 -266 -258 -266
-218 0 7 104 116 232 244 179 179 238 232 255 231 13 -2 23 -5 23 -8z m100
-355 c-290 -291 -367 -362 -378 -353 -20 17 681 718 718 718 20 0 -41 -66
-340 -365z m-225 75 c-222 -223 -282 -277 -293 -268 -20 17 511 548 548 548
20 0 -24 -49 -255 -280z m113 -37 c-254 -253 -320 -315 -330 -305 -18 18 585
622 622 622 21 0 -32 -56 -292 -317z m-1798 202 c0 -8 -4 -15 -10 -15 -5 0
-10 7 -10 15 0 8 5 15 10 15 6 0 10 -7 10 -15z m770 -5 c0 -5 -7 -10 -16 -10
-8 0 -12 5 -9 10 3 6 10 10 16 10 5 0 9 -4 9 -10z m3284 -452 c24 -33 19 -167
-5 -152 -5 3 -9 1 -9 -5 0 -17 -45 -8 -60 14 -8 11 -14 23 -13 27 2 4 -3 5
-10 2 -7 -2 -21 2 -32 10 -19 15 -19 15 7 16 15 0 38 -4 52 -10 30 -11 32 -8
10 14 -8 9 -32 16 -52 16 -30 1 -34 3 -19 11 9 5 22 7 29 3 7 -4 8 -3 4 4 -4
7 -1 12 7 12 8 0 17 -7 21 -15 3 -8 10 -15 16 -15 6 0 4 7 -4 16 -9 8 -16 22
-16 31 0 12 -6 11 -35 -6 -19 -11 -35 -16 -35 -12 0 11 95 57 122 60 4 1 14
-9 22 -21z m-3604 -139 c0 -5 -7 -9 -15 -9 -15 0 -20 12 -9 23 8 8 24 -1 24
-14z m30 6 c0 -8 -2 -15 -4 -15 -2 0 -6 7 -10 15 -3 8 -1 15 4 15 6 0 10 -7
10 -15z m149 -285 c26 -13 43 -30 50 -51 6 -18 11 -33 11 -35 0 -13 -85 47
-96 68 -23 45 -20 47 35 18z m3320 -105 c36 -18 45 -19 35 -4 -5 9 7 10 47 5
67 -9 129 -27 129 -37 0 -24 -217 -63 -410 -74 -120 -6 -343 7 -442 26 -96 19
-69 51 67 79 155 32 516 35 574 5z m-3277 -41 c48 -24 51 -27 30 -35 -12 -5
-30 -5 -39 -2 -11 4 -14 3 -9 -5 4 -7 18 -12 30 -12 30 0 48 21 36 40 -18 27
-11 40 18 35 151 -23 182 -29 182 -35 0 -10 -96 -38 -200 -57 -186 -34 -734
-17 -747 24 -15 45 273 86 534 78 97 -4 119 -8 165 -31z m-913 -107 c44 -41
64 -132 45 -204 -10 -38 -21 -26 -43 47 -12 39 -24 70 -27 70 -4 0 -3 -34 1
-75 4 -43 3 -75 -2 -75 -18 0 -62 56 -84 104 -22 52 -22 122 1 165 10 19 12
19 48 5 20 -9 48 -26 61 -37z m1321 8 c74 -38 109 -138 79 -224 -14 -40 -22
-31 -45 52 -18 62 -38 78 -29 22 3 -19 7 -50 10 -69 3 -19 2 -37 -3 -40 -13
-8 -69 54 -86 96 -19 44 -21 127 -4 163 12 27 25 27 78 0z m1980 -25 c0 -5 -4
-10 -10 -10 -5 0 -10 5 -10 10 0 6 5 10 10 10 6 0 10 -4 10 -10z m1051 -85
c17 -14 35 -23 39 -20 5 3 11 1 15 -5 14 -22 -34 -8 -65 20 l-33 30 -16 -23
c-9 -12 -15 -25 -14 -28 1 -3 -12 -6 -30 -7 -26 0 -28 1 -12 8 31 12 62 51 71
90 l9 35 3 -37 c2 -27 12 -44 33 -63z m183 33 c-32 -34 -67 -70 -76 -80 -38
-38 -7 -118 45 -118 17 0 16 3 -7 31 -17 20 -26 42 -25 62 l1 32 7 -30 c11
-45 29 -73 51 -80 11 -3 20 -11 20 -17 0 -5 -6 -8 -12 -5 -7 2 -29 -7 -48 -21
-19 -15 -29 -18 -21 -9 19 23 11 29 -19 14 -31 -15 -37 -52 -14 -78 17 -19 9
-24 -18 -14 -16 7 -12 61 6 84 9 12 6 13 -16 8 -22 -6 -30 -3 -39 14 -8 17
-13 18 -22 9 -9 -10 -9 -14 1 -17 6 -3 10 -9 6 -14 -3 -5 -2 -14 2 -20 5 -8 8
-8 14 0 4 7 11 1 19 -15 10 -23 10 -26 -2 -16 -8 7 -17 9 -20 5 -4 -3 -7 -1
-7 5 0 7 -7 12 -15 12 -8 0 -15 -5 -15 -12 0 -6 -3 -9 -6 -6 -3 4 0 16 6 29
11 19 10 24 -5 35 -14 11 -20 10 -31 -1 -15 -14 -8 -49 7 -39 5 3 9 0 9 -5 0
-6 -3 -11 -7 -11 -14 0 -35 17 -34 26 1 5 -8 10 -19 10 -11 1 -26 7 -34 13 -9
8 -16 8 -20 2 -4 -5 -2 -12 4 -16 5 -3 10 -11 10 -18 0 -6 -7 -1 -16 11 -9 13
-23 22 -32 21 -10 -1 -28 0 -42 1 -25 2 -25 2 3 10 16 5 35 6 43 3 19 -7 54
25 54 49 0 28 -14 22 -27 -12 -6 -16 -17 -30 -24 -30 -8 0 -7 6 4 18 20 22 22
72 5 91 -7 8 -1 6 14 -3 14 -10 29 -24 32 -32 9 -24 54 -17 73 12 16 25 17 26
24 5 11 -28 56 -38 77 -17 15 15 14 16 -10 16 -14 0 -36 9 -49 19 -23 19 -25
19 -44 1 -11 -10 -31 -21 -45 -24 -18 -5 -15 -1 12 15 21 13 42 34 47 48 6 18
10 20 10 9 2 -29 38 -58 74 -58 27 0 45 14 112 80 44 44 82 80 84 80 2 0 -23
-28 -55 -62z m-406 -25 c24 -18 51 -33 60 -34 12 0 10 -3 -6 -10 -19 -7 -29
-3 -60 29 -20 21 -53 50 -72 65 l-35 28 35 -23 c19 -12 54 -37 78 -55z m282
67 c0 -5 -2 -10 -4 -10 -3 0 -8 5 -11 10 -3 6 -1 10 4 10 6 0 11 -4 11 -10z
m-810 -10 c0 -5 -4 -10 -10 -10 -5 0 -10 5 -10 10 0 6 5 10 10 10 6 0 10 -4
10 -10z m-2661 -53 c44 -41 64 -132 45 -204 -10 -38 -21 -26 -43 47 -12 39
-24 70 -27 70 -4 0 -3 -34 1 -75 4 -43 3 -75 -2 -75 -17 0 -62 55 -82 100 -24
53 -27 107 -7 155 l15 34 38 -15 c21 -9 49 -26 62 -37z m2851 43 c0 -5 -4 -10
-10 -10 -5 0 -10 5 -10 10 0 6 5 10 10 10 6 0 10 -4 10 -10z m-3341 -41 c48
-34 71 -79 71 -138 0 -43 -26 -121 -40 -121 -5 0 -12 21 -15 48 -3 26 -9 61
-13 77 l-6 30 -7 -30 c-4 -16 -7 -51 -8 -77 -1 -55 -11 -60 -39 -20 -30 42
-45 100 -40 156 4 47 30 106 48 106 4 0 26 -14 49 -31z m3316 -29 c3 -5 1 -10
-4 -10 -6 0 -11 5 -11 10 0 6 2 10 4 10 3 0 8 -4 11 -10z m385 -91 c-7 -16
-26 -39 -41 -50 l-29 -21 20 -25 c11 -14 20 -35 19 -47 -1 -15 -3 -12 -10 10
-15 52 -31 58 -163 65 l-121 5 123 2 c95 2 130 6 152 19 29 16 49 50 51 81 0
11 2 13 6 4 3 -7 -1 -26 -7 -43z m-3866 27 c48 -20 51 -32 21 -76 -44 -64
-123 -86 -206 -59 -70 23 -66 35 12 43 40 3 75 9 78 11 11 12 -14 19 -75 23
-75 5 -79 16 -14 50 52 26 133 29 184 8z m2155 -10 c-3 -3 -21 -16 -42 -30
-35 -24 -46 -26 -152 -26 -110 0 -116 1 -162 30 l-47 30 204 0 c112 0 201 -2
199 -4z m961 -17 c0 -5 -7 -9 -15 -9 -15 0 -20 12 -9 23 8 8 24 -1 24 -14z
m-140 -9 c0 -5 -4 -10 -10 -10 -5 0 -10 5 -10 10 0 6 5 10 10 10 6 0 10 -4 10
-10z m190 -20 c0 -5 -4 -10 -10 -10 -5 0 -10 5 -10 10 0 6 5 10 10 10 6 0 10
-4 10 -10z m-2703 -31 c50 -16 57 -31 30 -69 -47 -70 -116 -94 -202 -70 -78
22 -75 37 10 45 106 10 94 35 -17 35 -60 0 -64 20 -10 46 72 34 111 37 189 13z
m477 -3 c19 -8 37 -19 41 -26 8 -13 -35 -79 -65 -98 -49 -30 -181 -22 -210 13
-8 9 7 14 62 19 39 3 74 9 77 11 11 12 -14 19 -75 23 -75 5 -79 16 -14 50 52
26 133 29 184 8z m2391 4 c-3 -5 -10 -10 -16 -10 -5 0 -9 5 -9 10 0 6 7 10 16
10 8 0 12 -4 9 -10z m980 -9 c-51 -23 -67 -43 -76 -94 l-6 -42 -2 41 c-2 62
44 112 104 113 12 0 4 -7 -20 -18z m-1205 -1 c0 -5 -4 -10 -10 -10 -5 0 -10 5
-10 10 0 6 5 10 10 10 6 0 10 -4 10 -10z m-3420 -13 c0 -2 -12 -14 -27 -28
l-28 -24 24 28 c23 25 31 32 31 24z m70 -51 c0 -12 -5 -7 -19 24 -11 24 -11
24 3 6 9 -11 16 -24 16 -30z m3990 40 c0 -3 -4 -8 -10 -11 -5 -3 -10 -1 -10 4
0 6 5 11 10 11 6 0 10 -2 10 -4z m-730 -27 c0 -5 -7 -9 -15 -9 -15 0 -20 12
-9 23 8 8 24 -1 24 -14z m-1010 -4 c0 -22 -27 -55 -45 -55 -14 0 -26 10 -33
25 -16 36 -17 35 33 35 25 0 45 -2 45 -5z m1970 -3 c0 -4 -20 -18 -45 -32 -25
-14 -45 -28 -45 -31 0 -4 -13 -12 -30 -19 -16 -7 -30 -16 -30 -20 0 -4 -37
-29 -82 -55 -46 -26 -93 -55 -105 -63 -13 -8 -23 -12 -23 -9 0 3 45 33 101 67
55 35 115 77 134 94 18 17 37 30 42 29 4 -2 22 8 38 22 31 25 45 31 45 17z
m-870 -12 c0 -5 -4 -10 -10 -10 -5 0 -10 5 -10 10 0 6 5 10 10 10 6 0 10 -4
10 -10z m-3190 -55 c-24 -25 -46 -45 -49 -45 -3 0 15 20 39 45 24 25 46 45 49
45 3 0 -15 -20 -39 -45z m4104 37 c-16 -10 -72 -180 -62 -190 4 -4 0 -12 -10
-18 -15 -10 -17 -7 -18 23 0 18 -11 48 -24 66 -22 30 -22 31 -2 13 12 -10 24
-27 28 -38 9 -29 19 -12 44 75 16 55 28 77 39 77 10 0 12 -3 5 -8z m42 -1 c-3
-5 1 -12 10 -15 10 -4 14 -12 10 -22 -4 -9 -4 -25 0 -36 5 -18 7 -17 29 6 13
15 28 26 34 26 13 0 25 -20 16 -28 -3 -3 -10 -1 -14 6 -13 22 -55 -32 -47 -62
l6 -25 -28 27 c-29 28 -34 45 -7 22 19 -16 19 -16 -5 50 -23 64 -23 60 -9 60
5 0 8 -4 5 -9z m-3872 -17 c5 -14 4 -15 -9 -4 -17 14 -19 20 -6 20 5 0 12 -7
15 -16z m456 5 c-14 -6 -34 -18 -45 -27 -12 -9 -8 -5 7 11 16 15 36 27 46 26
12 0 9 -3 -8 -10z m3130 1 c0 -5 -2 -10 -4 -10 -3 0 -8 5 -11 10 -3 6 -1 10 4
10 6 0 11 -4 11 -10z m496 -70 c40 -28 74 -53 74 -55 0 -6 -101 56 -118 72 -7
7 -24 16 -38 19 -27 7 -26 6 -18 29 6 16 8 16 16 1 5 -9 43 -39 84 -66z
m-3576 16 c0 -12 -5 -7 -19 24 -11 24 -11 24 3 6 9 -11 16 -24 16 -30z m2820
34 c0 -5 -5 -10 -11 -10 -5 0 -7 5 -4 10 3 6 8 10 11 10 2 0 4 -4 4 -10z
m-2393 -22 c-3 -8 -6 -5 -6 6 -1 11 2 17 5 13 3 -3 4 -12 1 -19z m2143 12 c0
-5 -4 -10 -10 -10 -5 0 -10 5 -10 10 0 6 5 10 10 10 6 0 10 -4 10 -10z m340 0
c0 -5 -5 -10 -11 -10 -5 0 -7 5 -4 10 3 6 8 10 11 10 2 0 4 -4 4 -10z m130 6
c0 -3 -4 -8 -10 -11 -5 -3 -10 -1 -10 4 0 6 5 11 10 11 6 0 10 -2 10 -4z
m-3973 -28 c-3 -8 -6 -5 -6 6 -1 11 2 17 5 13 3 -3 4 -12 1 -19z m451 -3 c-3
-3 -9 2 -12 12 -6 14 -5 15 5 6 7 -7 10 -15 7 -18z m3733 8 c13 -16 12 -17 -3
-4 -10 7 -18 15 -18 17 0 8 8 3 21 -13z m-3849 -22 c-9 -16 -18 -28 -21 -26
-4 5 27 55 34 55 2 0 -4 -13 -13 -29z m808 16 c0 -1 -24 -25 -52 -52 l-53 -50
50 53 c46 48 55 57 55 49z m2445 -7 c3 -5 1 -10 -4 -10 -6 0 -11 5 -11 10 0 6
2 10 4 10 3 0 8 -4 11 -10z m-3552 -15 c-3 -9 -8 -14 -10 -11 -3 3 -2 9 2 15
9 16 15 13 8 -4z m1164 -7 c-3 -8 -6 -5 -6 6 -1 11 2 17 5 13 3 -3 4 -12 1
-19z m-1307 -8 c-6 -11 -13 -20 -16 -20 -2 0 0 9 6 20 6 11 13 20 16 20 2 0 0
-9 -6 -20z m4523 1 c-17 -11 -36 -28 -42 -38 -6 -10 -11 -13 -11 -6 0 14 57
63 73 63 7 0 -2 -9 -20 -19z m-4212 -14 c-10 -9 -11 -8 -5 6 3 10 9 15 12 12
3 -3 0 -11 -7 -18z m1049 3 c-6 -11 -13 -20 -16 -20 -2 0 0 9 6 20 6 11 13 20
16 20 2 0 0 -9 -6 -20z m2528 8 c-6 -18 -28 -21 -28 -4 0 9 7 16 16 16 9 0 14
-5 12 -12z m-3807 -21 c-10 -9 -11 -8 -5 6 3 10 9 15 12 12 3 -3 0 -11 -7 -18z
m599 20 c0 -2 -15 -16 -32 -33 l-33 -29 29 33 c28 30 36 37 36 29z m60 -10 c0
-2 -15 -16 -32 -33 l-33 -29 29 33 c28 30 36 37 36 29z m80 -7 c0 -5 -5 -10
-11 -10 -5 0 -7 5 -4 10 3 6 8 10 11 10 2 0 4 -4 4 -10z m300 6 c0 -2 -8 -10
-17 -17 -16 -13 -17 -12 -4 4 13 16 21 21 21 13z m321 -19 c-10 -9 -11 -8 -5
6 3 10 9 15 12 12 3 -3 0 -11 -7 -18z m-1141 0 c0 -2 -12 -14 -27 -28 l-28
-24 24 28 c23 25 31 32 31 24z m1021 -32 c5 3 6 -1 2 -10 -5 -13 -7 -14 -14
-3 -5 7 -8 22 -7 33 1 17 1 17 5 -3 2 -12 9 -20 14 -17z m-1271 0 c-25 -26
-40 -32 -40 -14 0 5 4 8 9 5 4 -3 16 3 26 14 10 11 20 20 23 20 3 0 -5 -11
-18 -25z m-80 11 c0 -3 -4 -8 -10 -11 -5 -3 -10 -1 -10 4 0 6 5 11 10 11 6 0
10 -2 10 -4z m1435 -26 c-16 -16 -34 -30 -39 -29 -6 0 -6 3 1 5 7 3 9 13 6 22
-3 12 -2 13 4 4 7 -10 14 -8 28 8 10 11 20 20 23 20 3 0 -7 -13 -23 -30z
m2695 15 c0 -8 -4 -15 -10 -15 -5 0 -10 7 -10 15 0 8 5 15 10 15 6 0 10 -7 10
-15z m373 -40 l6 -40 -15 28 c-9 16 -13 36 -10 44 9 21 12 15 19 -32z m-3538
5 c-9 -16 -18 -30 -21 -30 -2 0 2 14 11 30 9 17 18 30 21 30 2 0 -2 -13 -11
-30z m105 22 c0 -5 -7 -17 -15 -28 -14 -18 -14 -17 -4 9 12 27 19 34 19 19z
m-805 -12 c-3 -5 -12 -10 -18 -10 -7 0 -6 4 3 10 19 12 23 12 15 0z m3835 0
c0 -5 -5 -10 -11 -10 -5 0 -7 5 -4 10 3 6 8 10 11 10 2 0 4 -4 4 -10z m-3280
-13 c0 -2 -10 -12 -22 -23 l-23 -19 19 23 c18 21 26 27 26 19z m2470 -7 c0 -5
-4 -10 -10 -10 -5 0 -10 5 -10 10 0 6 5 10 10 10 6 0 10 -4 10 -10z m690 5 c0
-2 -10 -9 -22 -15 -22 -11 -22 -10 -4 4 21 17 26 19 26 11z m-2710 -8 c0 -2
-12 -14 -27 -28 l-28 -24 24 28 c23 25 31 32 31 24z m-1195 -46 c65 -37 97
-128 75 -210 -13 -51 -21 -46 -45 29 -24 75 -39 88 -30 26 l7 -48 -51 43 c-27
24 -52 54 -56 66 -5 21 9 95 22 116 6 10 38 1 78 -22z m945 4 c-25 -26 -40
-32 -40 -14 0 5 4 8 9 5 4 -3 16 3 26 14 10 11 20 20 23 20 3 0 -5 -11 -18
-25z m2910 20 c0 -2 -10 -9 -22 -15 -22 -11 -22 -10 -4 4 21 17 26 19 26 11z
m-3475 -15 c3 -5 1 -10 -4 -10 -6 0 -11 5 -11 10 0 6 2 10 4 10 3 0 8 -4 11
-10z m485 6 c0 -3 -4 -8 -10 -11 -5 -3 -10 -1 -10 4 0 6 5 11 10 11 6 0 10 -2
10 -4z m3020 -6 c0 -5 -2 -10 -4 -10 -3 0 -8 5 -11 10 -3 6 -1 10 4 10 6 0 11
-4 11 -10z m520 -10 c0 -5 -4 -10 -10 -10 -5 0 -10 5 -10 10 0 6 5 10 10 10 6
0 10 -4 10 -10z m-3960 -15 c-7 -9 -15 -13 -19 -10 -3 3 1 10 9 15 21 14 24
12 10 -5z m3150 1 c0 -3 -4 -8 -10 -11 -5 -3 -10 -1 -10 4 0 6 5 11 10 11 6 0
10 -2 10 -4z m-2195 -23 c19 -9 35 -19 35 -22 0 -5 -84 -57 -112 -69 -11 -5
-10 52 2 82 11 30 26 32 75 9z m2595 -3 c0 -5 -4 -10 -10 -10 -5 0 -10 5 -10
10 0 6 5 10 10 10 6 0 10 -4 10 -10z m80 -40 c0 -5 -4 -10 -10 -10 -5 0 -10 5
-10 10 0 6 5 10 10 10 6 0 10 -4 10 -10z m-3118 -53 c24 -13 45 -36 58 -62 22
-45 27 -124 10 -156 -13 -24 -9 -24 32 1 18 11 36 20 40 20 4 0 -10 -26 -31
-57 -53 -80 -94 -165 -122 -250 -19 -61 -27 -74 -51 -82 -30 -11 -35 -20 -16
-39 9 -9 8 -12 -7 -12 -11 0 -69 -5 -128 -10 -111 -11 -370 1 -417 18 -18 7
-28 27 -47 93 -13 46 -36 110 -50 142 -14 31 -23 60 -20 63 9 9 229 10 260 1
16 -4 26 -4 24 0 -3 5 12 7 33 5 49 -5 62 14 29 42 -15 13 -34 49 -47 94 -13
39 -26 72 -29 72 -3 0 -2 -34 2 -75 4 -43 3 -75 -2 -75 -17 0 -62 55 -82 100
-23 51 -26 102 -10 149 11 30 15 32 42 27 43 -9 97 -53 114 -94 10 -24 14 -59
11 -104 -3 -60 -2 -66 12 -53 51 46 168 59 233 26 31 -16 43 -17 72 -8 35 11
43 21 25 32 -34 21 -50 132 -29 194 13 36 24 35 91 -2z m3400 -23 c-1 -16 -4
-40 -6 -54 -3 -14 -5 -29 -5 -33 -2 -17 -44 -1 -48 18 -16 85 -16 98 2 111 28
21 61 -4 57 -42z m-4073 -34 c18 -5 44 -16 58 -25 l24 -16 -32 -44 c-17 -24
-45 -49 -62 -56 -46 -19 -133 -16 -157 6 -25 23 -11 35 42 35 20 0 43 3 52 6
31 12 4 24 -52 24 -72 0 -90 10 -63 34 22 20 93 44 131 45 14 1 40 -3 59 -9z
m3351 -20 c0 -5 -5 -10 -11 -10 -5 0 -7 5 -4 10 3 6 8 10 11 10 2 0 4 -4 4
-10z m380 -70 c0 -5 -5 -10 -11 -10 -5 0 -7 5 -4 10 3 6 8 10 11 10 2 0 4 -4
4 -10z m-250 -30 c0 -5 -4 -10 -10 -10 -5 0 -10 5 -10 10 0 6 5 10 10 10 6 0
10 -4 10 -10z m-111 -120 c134 -28 201 -26 201 7 0 7 -15 21 -32 29 l-33 15
45 -6 c156 -21 171 -20 259 19 45 20 94 36 109 36 14 0 57 -12 94 -26 l67 -27
-18 -26 c-31 -44 -60 -107 -91 -198 -16 -49 -35 -89 -42 -89 -7 -1 -16 -3 -20
-4 -5 -1 -11 -3 -15 -4 -16 -3 -33 -17 -33 -28 0 -6 15 -8 35 -6 19 2 35 1 35
-3 0 -17 -219 -32 -388 -26 -186 6 -236 14 -238 38 0 8 -4 21 -7 29 -3 8 -15
41 -26 73 -29 80 -76 172 -125 242 l-42 61 85 -43 c56 -29 119 -50 180 -63z"/>
<path d="M3916 5909 c-28 -33 -32 -59 -14 -92 16 -32 39 -46 71 -47 40 0 67
17 82 53 37 89 -77 160 -139 86z m106 -16 c39 -35 7 -98 -48 -91 -18 2 -34 13
-43 29 -13 24 -13 29 2 53 20 30 61 35 89 9z"/>
<path d="M2222 4302 c-22 -3 -46 -34 -47 -62 -1 -26 27 -50 59 -50 34 0 54 22
51 56 -2 30 -36 60 -63 56z m37 -44 c11 -29 -5 -50 -33 -46 -21 3 -32 28 -22
54 9 22 46 17 55 -8z"/>
<path d="M2221 4260 c-19 -11 -6 -41 14 -34 16 6 20 29 7 38 -4 2 -14 1 -21
-4z"/>
<path d="M2291 4194 c-44 -50 -8 -134 56 -130 38 2 93 50 75 68 -6 6 -8 17 -5
25 8 21 -37 58 -74 59 -22 1 -38 -6 -52 -22z m86 -20 c30 -29 11 -84 -29 -84
-23 0 -48 23 -48 44 0 44 47 69 77 40z"/>
<path d="M2327 4163 c-13 -12 -7 -44 8 -49 24 -10 47 14 34 37 -10 19 -30 25
-42 12z"/>
<path d="M2485 4143 c-45 -12 -63 -83 -27 -110 10 -6 28 -11 42 -11 29 2 76
43 61 52 -6 4 -8 13 -4 21 4 13 -33 56 -47 54 -3 -1 -14 -4 -25 -6z m43 -35
c33 -33 -18 -87 -54 -57 -27 22 -10 69 26 69 9 0 21 -5 28 -12z"/>
<path d="M2493 4103 c-18 -7 -16 -43 2 -43 18 0 31 28 19 39 -5 5 -15 6 -21 4z"/>
<path d="M2422 3778 c-7 -7 -12 -16 -12 -21 0 -5 -10 -17 -22 -26 -14 -12 -18
-22 -12 -32 5 -8 7 -22 6 -32 -5 -26 54 -81 76 -71 9 4 27 6 40 5 16 -2 25 4
29 17 3 11 13 22 24 25 20 5 26 32 10 41 -5 3 -7 15 -4 26 3 13 -5 30 -27 51
-27 27 -35 31 -51 21 -11 -7 -20 -8 -24 -2 -8 13 -18 13 -33 -2z m87 -46 c36
-36 14 -95 -37 -99 -48 -4 -74 50 -45 93 16 25 60 29 82 6z"/>
<path d="M2445 3713 c-12 -27 -12 -37 1 -50 28 -29 79 11 58 45 -15 24 -50 27
-59 5z"/>
<path d="M2244 3746 c-13 -10 -23 -11 -35 -3 -21 13 -49 -6 -49 -34 0 -11 -7
-19 -15 -19 -22 0 -39 -38 -25 -55 8 -10 8 -19 0 -34 -9 -17 -6 -24 12 -41 13
-12 32 -30 43 -40 21 -20 46 -26 59 -13 3 4 21 7 39 7 25 1 33 6 35 22 2 12
12 24 23 27 24 6 35 35 22 56 -7 12 -8 23 -1 35 7 13 5 22 -7 36 -10 11 -21
17 -25 15 -4 -3 -10 4 -13 14 -7 29 -40 43 -63 27z m43 -62 c13 -15 22 -32 20
-39 -3 -6 -1 -18 3 -25 12 -20 -38 -64 -74 -66 -36 -2 -70 31 -72 69 -2 34 38
82 60 74 9 -4 18 -2 21 3 9 15 16 12 42 -16z"/>
<path d="M2220 3667 c-45 -23 -34 -87 15 -87 24 0 51 26 50 51 0 13 -27 49
-37 49 -2 0 -14 -6 -28 -13z"/>
<path d="M2429 3463 c-13 -16 -12 -17 4 -4 9 7 17 15 17 17 0 8 -8 3 -21 -13z"/>
<path d="M2680 3390 c0 -5 5 -10 10 -10 6 0 10 5 10 10 0 6 -4 10 -10 10 -5 0
-10 -4 -10 -10z"/>
<path d="M2696 3132 c-3 -6 -1 -14 5 -17 15 -10 25 3 12 16 -7 7 -13 7 -17 1z"/>
<path d="M2275 2690 c-3 -5 3 -10 15 -10 12 0 18 5 15 10 -3 6 -10 10 -15 10
-5 0 -12 -4 -15 -10z"/>
<path d="M2355 2690 c-4 -6 5 -10 20 -10 15 0 24 4 20 10 -3 6 -12 10 -20 10
-8 0 -17 -4 -20 -10z"/>
<path d="M2355 2640 c-3 -5 -19 -7 -35 -3 -25 4 -36 -1 -65 -30 -19 -19 -35
-43 -35 -52 0 -24 64 -85 90 -85 14 0 24 -9 32 -30 9 -28 51 -60 77 -60 5 0 1
20 -10 45 l-20 46 30 28 c43 40 40 70 -9 115 -44 39 -46 40 -55 26z m-1 -32
c-15 -7 -28 -7 -40 0 -14 8 -10 10 22 10 33 0 36 -2 18 -10z m13 -74 c5 -13 8
-12 24 2 25 22 24 6 -1 -24 -18 -22 -21 -22 -48 -8 -34 17 -45 39 -30 54 13
13 46 -2 55 -24z m-47 -37 c0 -6 -11 0 -25 13 -14 13 -25 28 -25 33 0 6 11 0
25 -13 14 -13 25 -28 25 -33z"/>
<path d="M2383 2327 c3 -8 11 -34 18 -57 10 -32 21 -46 50 -61 21 -10 40 -19
42 -19 2 0 2 14 -1 30 -2 17 -8 30 -12 30 -4 0 -11 11 -14 25 -4 16 -21 32
-48 46 -31 16 -40 17 -35 6z"/>
<path d="M2520 2141 c0 -6 4 -13 10 -16 6 -3 7 1 4 9 -7 18 -14 21 -14 7z"/>
<path d="M2458 4723 c-23 -6 -34 -49 -18 -68 24 -28 70 -11 70 25 0 23 -31 47
-52 43z"/>
<path d="M3795 4335 c66 -25 84 -37 105 -69 15 -25 20 -28 25 -14 20 52 -16
80 -122 92 l-48 6 40 -15z"/>
<path d="M4082 4335 c-65 -15 -82 -31 -75 -67 7 -36 14 -35 35 2 9 16 32 36
50 44 18 8 44 19 58 24 37 15 0 14 -68 -3z"/>
<path d="M3627 4290 c-40 -12 -56 -38 -57 -88 0 -76 48 -142 119 -163 31 -9
48 -8 92 5 63 19 86 45 93 106 7 56 -14 100 -57 122 -38 19 -150 30 -190 18z
m76 -97 c-7 -2 -19 -2 -25 0 -7 3 -2 5 12 5 14 0 19 -2 13 -5z"/>
<path d="M4205 4293 c-95 -7 -140 -43 -144 -115 -4 -81 37 -128 125 -142 91
-16 184 65 184 160 0 78 -46 105 -165 97z"/>
<path d="M3916 3973 c-12 -12 -5 -22 14 -20 11 1 20 4 20 8 0 10 -27 19 -34
12z"/>
<path d="M4003 3973 c-20 -7 -15 -19 7 -19 11 0 20 4 20 8 0 10 -13 16 -27 11z"/>
<path d="M3845 3920 c-4 -6 -3 -16 3 -22 6 -6 12 -6 17 2 4 6 3 16 -3 22 -6 6
-12 6 -17 -2z"/>
<path d="M3894 3885 c-19 -18 -34 -42 -34 -54 0 -30 51 -80 89 -87 22 -5 33
-14 37 -31 4 -14 22 -32 45 -44 22 -10 39 -17 39 -15 0 2 -9 25 -20 50 l-19
45 29 30 c39 38 38 63 -4 104 -28 29 -40 34 -81 34 -39 0 -53 -6 -81 -32z m99
3 c-2 -5 -13 -8 -24 -8 -10 0 -19 3 -19 8 0 4 11 7 24 7 13 0 22 -3 19 -7z
m16 -75 c8 -15 11 -15 28 -3 17 14 17 14 0 -6 -9 -11 -14 -24 -10 -27 11 -11
-17 -8 -40 4 -16 9 -22 9 -25 1 -5 -16 -37 2 -46 25 -6 16 -6 16 12 0 23 -21
33 -22 26 -2 -4 8 -3 22 0 30 7 19 39 5 55 -22z"/>
<path d="M4123 3645 c-39 -21 -41 -24 -28 -41 13 -16 14 -16 9 -2 -4 13 3 22
30 35 20 9 36 20 36 25 0 4 -1 7 -2 7 -2 -1 -22 -12 -45 -24z"/>
<path d="M3820 3647 c22 -22 105 -47 153 -46 37 1 34 3 -19 10 -34 4 -82 17
-105 29 -28 14 -38 16 -29 7z"/>
<path d="M2300 4600 c0 -5 5 -10 10 -10 6 0 10 5 10 10 0 6 -4 10 -10 10 -5 0
-10 -4 -10 -10z"/>
<path d="M2197 4574 c-9 -10 2 -24 19 -24 8 0 14 7 14 15 0 15 -21 21 -33 9z"/>
<path d="M5580 4389 l-25 -20 33 16 c17 8 32 18 32 20 0 10 -16 4 -40 -16z"/>
<path d="M2140 4452 c-41 -15 -48 -54 -13 -73 29 -15 56 -3 61 28 3 23 -27 52
-48 45z"/>
<path d="M2695 4052 c-37 -8 -53 -62 -26 -86 29 -26 81 -3 81 36 0 27 -31 55
-55 50z"/>
<path d="M5120 3743 c-7 -27 -14 -56 -17 -65 -2 -11 1 -18 9 -18 8 0 21 21 30
48 12 39 13 52 3 65 -11 15 -14 11 -25 -30z"/>
<path d="M5090 3603 c-6 -27 -14 -82 -17 -123 -5 -80 -6 -77 64 -170 22 -31
25 -32 19 -10 -3 14 -6 28 -6 33 0 4 -6 7 -14 7 -7 0 -20 7 -27 16 -11 14 -10
19 10 35 19 15 22 25 17 52 -3 18 -8 62 -11 97 -3 35 -11 67 -18 72 -8 5 -7 8
6 8 9 0 17 7 17 15 0 8 -6 15 -14 15 -8 0 -19 -20 -26 -47z m23 -70 c-16 -6
-17 -33 -1 -33 6 0 8 -3 5 -6 -4 -4 -13 -1 -22 6 -12 10 -13 16 -4 26 6 8 17
14 23 13 7 0 6 -2 -1 -6z"/>
<path d="M5115 3381 c-8 -15 3 -31 21 -31 9 0 14 7 12 17 -4 20 -24 28 -33 14z"/>
<path d="M2676 3705 c-29 -45 32 -99 69 -61 20 19 19 50 -1 67 -24 20 -53 18
-68 -6z"/>
<path d="M5184 3539 c6 -127 22 -256 25 -206 0 10 15 61 32 113 l32 94 -36 67
c-56 106 -61 99 -53 -68z"/>
<path d="M1912 3530 c-21 -32 -16 -70 12 -90 42 -29 107 8 98 57 -11 60 -78
81 -110 33z m58 -34 c0 -3 -4 -8 -10 -11 -5 -3 -10 -1 -10 4 0 6 5 11 10 11 6
0 10 -2 10 -4z"/>
<path d="M5288 3448 c-32 -69 -79 -290 -64 -306 7 -6 6 -7 26 32 19 38 75 72
93 58 9 -8 12 10 11 81 -1 76 -5 99 -24 130 -12 20 -23 37 -24 37 -1 0 -9 -15
-18 -32z"/>
<path d="M4255 2250 c-258 -258 -466 -472 -462 -476 12 -12 116 -12 133 0 18
14 10 43 -14 49 -13 4 -12 5 3 6 13 1 177 158 427 409 393 394 406 408 401
440 -3 18 -8 34 -12 37 -4 2 -218 -207 -476 -465z"/>
<path d="M4361 2206 c-343 -343 -381 -384 -360 -389 13 -4 33 -7 44 -7 13 0
140 120 368 348 347 347 347 347 347 390 0 23 -3 42 -8 42 -4 0 -180 -173
-391 -384z"/>
<path d="M3076 2505 c-9 -26 -7 -32 5 -12 6 10 9 21 6 23 -2 3 -7 -2 -11 -11z"/>
<path d="M4128 1719 c-46 -27 4 -75 51 -49 28 14 27 46 -1 54 -29 7 -30 7 -50
-5z"/>
<path d="M3770 1590 c0 -14 35 -30 64 -30 33 0 33 18 0 30 -32 13 -64 13 -64
0z"/>
<path d="M1905 3066 c-11 -8 -16 -19 -12 -30 9 -22 41 -17 45 8 6 27 -11 38
-33 22z"/>
<path d="M2034 3055 c-4 -9 -2 -21 4 -27 15 -15 44 -1 40 19 -4 23 -36 29 -44
8z"/>
<path d="M2183 3063 c-15 -5 -17 -39 -4 -47 4 -3 17 1 27 9 17 12 17 15 4 28
-8 8 -21 13 -27 10z"/>
<path d="M2584 3046 c-3 -9 -3 -23 0 -31 8 -22 48 0 44 23 -4 22 -36 28 -44 8z"/>
<path d="M2714 3046 c-8 -21 3 -36 27 -36 15 0 20 6 17 22 -4 27 -35 37 -44
14z"/>
<path d="M5175 3030 c3 -5 8 -10 11 -10 2 0 4 5 4 10 0 6 -5 10 -11 10 -5 0
-7 -4 -4 -10z"/>
<path d="M2444 3035 c-4 -9 -2 -21 4 -27 15 -15 44 -1 40 19 -4 23 -36 29 -44
8z"/>
<path d="M5339 3014 c82 -14 151 -45 151 -66 0 -6 3 -8 7 -5 12 12 -40 57 -76
67 -20 5 -65 11 -101 14 -63 5 -63 5 19 -10z"/>
<path d="M5831 3019 c-60 -10 -112 -36 -119 -59 -3 -8 8 -3 26 12 24 20 50 28
116 38 48 7 86 14 86 16 0 6 -48 3 -109 -7z"/>
<path d="M5545 2720 c-3 -5 3 -10 15 -10 12 0 18 5 15 10 -3 6 -10 10 -15 10
-5 0 -12 -4 -15 -10z"/>
<path d="M5635 2720 c-3 -5 3 -10 15 -10 12 0 18 5 15 10 -3 6 -10 10 -15 10
-5 0 -12 -4 -15 -10z"/>
<path d="M5625 2670 c-3 -5 -19 -7 -35 -3 -25 4 -36 -1 -65 -30 -19 -19 -35
-43 -35 -52 0 -26 64 -85 93 -85 20 0 28 -7 37 -35 10 -32 63 -75 76 -62 2 2
-3 24 -13 49 -16 45 -58 78 -97 78 -8 0 -20 7 -27 17 -13 15 -12 15 9 4 19
-10 22 -9 22 9 0 11 6 20 14 20 18 0 46 -27 46 -45 0 -26 20 -26 45 -1 36 36
32 67 -15 110 -44 39 -46 40 -55 26z"/>
<path d="M5663 2347 c3 -8 11 -32 17 -54 9 -29 22 -44 51 -60 21 -12 39 -19
39 -16 0 3 -8 28 -17 55 -15 40 -26 54 -57 70 -31 16 -38 17 -33 5z"/>
<path d="M5700 2169 c0 -5 4 -8 9 -4 9 5 35 -30 34 -45 -1 -19 24 -50 53 -64
19 -9 37 -16 39 -16 2 0 -4 21 -13 46 -12 33 -28 54 -54 70 -40 25 -68 31 -68
13z"/>
<path d="M6010 2050 c0 -5 5 -10 11 -10 5 0 7 5 4 10 -3 6 -8 10 -11 10 -2 0
-4 -4 -4 -10z"/>
<path d="M6180 2000 c0 -5 5 -10 10 -10 6 0 10 5 10 10 0 6 -4 10 -10 10 -5 0
-10 -4 -10 -10z"/>
<path d="M5120 1979 c0 -5 5 -7 10 -4 6 3 10 8 10 11 0 2 -4 4 -10 4 -5 0 -10
-5 -10 -11z"/>
<path d="M4760 1829 c0 -5 5 -7 10 -4 6 3 10 8 10 11 0 2 -4 4 -10 4 -5 0 -10
-5 -10 -11z"/>
<path d="M6390 1810 c0 -5 5 -10 10 -10 6 0 10 5 10 10 0 6 -4 10 -10 10 -5 0
-10 -4 -10 -10z"/>
<path d="M6540 1720 c0 -5 5 -10 10 -10 6 0 10 5 10 10 0 6 -4 10 -10 10 -5 0
-10 -4 -10 -10z"/>
<path d="M4696 1711 c-4 -5 -2 -12 3 -15 5 -4 12 -2 15 3 4 5 2 12 -3 15 -5 4
-12 2 -15 -3z"/>
<path d="M4645 1680 c4 -6 11 -8 16 -5 14 9 11 15 -7 15 -8 0 -12 -5 -9 -10z"/>
<path d="M6555 1670 c-3 -5 1 -10 10 -10 9 0 13 5 10 10 -3 6 -8 10 -10 10 -2
0 -7 -4 -10 -10z"/>
<path d="M4575 1520 c3 -5 8 -10 11 -10 2 0 4 5 4 10 0 6 -5 10 -11 10 -5 0
-7 -4 -4 -10z"/>
<path d="M6740 1350 c0 -5 5 -10 11 -10 5 0 7 5 4 10 -3 6 -8 10 -11 10 -2 0
-4 -4 -4 -10z"/>
<path d="M4466 1261 c-4 -5 -2 -12 3 -15 5 -4 12 -2 15 3 4 5 2 12 -3 15 -5 4
-12 2 -15 -3z"/>
<path d="M6551 1199 c-1 -57 -1 -57 -41 -73 -22 -9 -40 -18 -40 -20 0 -2 20
-1 44 1 68 8 108 -4 157 -44 31 -27 24 -16 -27 38 -48 52 -75 89 -82 115 l-10
39 -1 -56z"/>
<path d="M4440 1210 c0 -5 5 -10 11 -10 5 0 7 5 4 10 -3 6 -8 10 -11 10 -2 0
-4 -4 -4 -10z"/>
<path d="M4740 1200 c0 -11 -30 -52 -67 -92 -57 -60 -61 -66 -24 -37 40 31 49
34 111 34 62 0 65 1 38 12 -16 7 -42 10 -58 6 -18 -3 -30 -1 -30 5 0 5 9 8 20
5 18 -5 20 0 20 41 0 25 -2 46 -5 46 -3 0 -5 -9 -5 -20z m0 -50 c0 -5 -5 -10
-11 -10 -5 0 -7 5 -4 10 3 6 8 10 11 10 2 0 4 -4 4 -10z"/>
<path d="M6780 1180 c0 -5 5 -10 11 -10 5 0 7 5 4 10 -3 6 -8 10 -11 10 -2 0
-4 -4 -4 -10z"/>
<path d="M6750 1130 c0 -5 5 -10 10 -10 6 0 10 5 10 10 0 6 -4 10 -10 10 -5 0
-10 -4 -10 -10z"/>
<path d="M4465 1040 c-3 -5 1 -10 10 -10 9 0 13 5 10 10 -3 6 -8 10 -10 10 -2
0 -7 -4 -10 -10z"/>
<path d="M6011 2250 c0 -8 4 -22 9 -30 12 -18 12 -2 0 25 -6 13 -9 15 -9 5z"/>
<path d="M6022 2170 c0 -19 2 -27 5 -17 2 9 2 25 0 35 -3 9 -5 1 -5 -18z"/>
<path d="M5922 1703 c-18 -2 -30 -9 -27 -14 9 -14 39 -11 61 6 10 8 15 14 9
13 -5 -1 -25 -3 -43 -5z"/>
<path d="M6010 1378 c-27 -14 -30 -19 -16 -24 9 -4 24 0 34 9 16 15 19 14 31
-4 8 -13 8 -18 1 -14 -14 8 -65 -3 -55 -13 15 -15 66 -9 76 9 13 26 26 24 25
-3 -1 -13 6 -24 16 -26 12 -2 15 2 11 17 -4 15 -1 21 11 21 11 0 16 -7 14 -17
-2 -12 5 -19 21 -21 l24 -4 -22 27 c-11 15 -21 37 -21 49 -1 21 -1 21 -20 -3
l-20 -23 -39 19 c-37 18 -39 19 -71 1z"/>
<path d="M5953 1339 c-12 -31 0 -40 25 -19 9 7 9 7 2 -2 -16 -19 -12 -27 10
-21 25 7 25 9 -3 43 l-24 27 -10 -28z"/>
<path d="M2667 673 c5 -45 26 -84 38 -71 8 8 -24 118 -34 118 -5 0 -6 -21 -4
-47z"/>
<path d="M2360 550 c8 -5 24 -10 35 -10 17 0 17 2 5 10 -8 5 -24 10 -35 10
-17 0 -17 -2 -5 -10z"/>
<path d="M2265 467 c13 -8 60 -12 128 -11 94 1 105 -1 87 -13 -24 -17 -26 -39
-4 -47 27 -11 42 -7 69 18 l26 25 -23 14 c-16 10 -66 16 -163 20 -111 5 -136
4 -120 -6z"/>
<path d="M2120 320 c0 -14 35 -30 64 -30 33 0 33 13 1 28 -31 14 -65 16 -65 2z"/>
<path d="M5756 451 c-24 -26 -13 -41 29 -41 23 0 38 6 44 18 21 40 -41 58 -73
23z"/>
<path d="M5410 325 c19 -19 80 -32 80 -17 0 16 -34 32 -66 32 -25 0 -27 -2
-14 -15z"/>
<path d="M5805 250 c-3 -5 -1 -10 4 -10 6 0 11 5 11 10 0 6 -2 10 -4 10 -3 0
-8 -4 -11 -10z"/>
</g>
</svg>
